# xmcd
#
# Track frame offsets:
#  150
#  13485
#  26405
#  37334
#  48435
#  64501
#  74706
#  85818
#  96801
#  107742
#  118206
#  132247
#  142507
#  154350
#  167009
#  177763
#  189289
#  197409
#  210643
#  220498
#  232933
#  244473
#  255078
#  268405
#  280036
#  289587
#
# Disc length: 4205 seconds
#
# Revision: 0
# Processed by: cddbd v1.5.1PL2 Copyright (c) Steve Scherf et al.
# Submitted via: Collectorz.com_Music_Collector 6.10
#
DISCID=7f106b1a
DTITLE=Various Artist - The UK Sue Story ! Vol 4
DYEAR=2006
DGENRE=General R&B
TTITLE0=Soul Sisters - Good Time Tonight
TTITLE1=Ike and Tina Turner - A Fool In Love
TTITLE2=Inez and Charlie Foxx - La De Da I Love You
TTITLE3=Screamin' Jay Hawkins - I Put A Spell On You
TTITLE4=Patti LaBelle and The Bluebelles - Down The Aisle
TTITLE5=Huey "Piano" Smith and The Clowns - Rockin' Pneumonia And The Boogie Woogie Flu Part 1
TTITLE6=Jimmy Reed - Odds And Ends
TTITLE7=Baby Washington - Doodlin'
TTITLE8=Bobby Parker - Steal Your Heart Away
TTITLE9=Buster Brown  - Lost In A Dream
TTITLE10=The Dorsets - Pork Chops 
TTITLE11=The Naturals - Lenny Goofed
TTITLE12=Elmore James - Knocking At Your Door
TTITLE13=Gladys Knight and The Pips - Love Call
TTITLE14=Hank Jacobs - So Far Away
TTITLE15=Claudine Clark - The Strength To Be Strong
TTITLE16=The Anglos - Stepping Stone aka You're Fooling Me
TTITLE17=Jerry Butler - I Stand Accused
TTITLE18=Alexander Jackson and The Turnkeys aka Lala Wilson Band - The Whip aka Flea Pot
TTITLE19=Joe Haywood - Warm And Tender Love
TTITLE20=The Spidells featuring Billy Lockridge - Find Out What's Happening
TTITLE21=Little Richard - Dance What You Wann
TTITLE22=Danny White - I'm Dedicating My Life
TTITLE23=Tarheel Slim And Little Ann - You Make Me Feel So Good
TTITLE24=Rosco Gordon - Goin' Home
TTITLE25=Jimmy McGriff - 'Round Midnight
EXTD=
EXTT0=
EXTT1=
EXTT2=
EXTT3=
EXTT4=
EXTT5=
EXTT6=
EXTT7=
EXTT8=
EXTT9=
EXTT10=
EXTT11=
EXTT12=
EXTT13=
EXTT14=
EXTT15=
EXTT16=
EXTT17=
EXTT18=
EXTT19=
EXTT20=
EXTT21=
EXTT22=
EXTT23=
EXTT24=
EXTT25=
PLAYORDER=
